<svg width="75" height="60" viewBox="0 0 75 60" fill="none" xmlns="http://www.w3.org/2000/svg">
<path d="M66.4847 15.0853C66.529 15.7236 66.529 16.3618 66.529 17.0059C66.529 36.6324 51.5408 59.2677 24.1342 59.2677V59.2559C16.0382 59.2677 8.11042 56.9559 1.29492 52.5971C2.47214 52.7383 3.65527 52.8089 4.84134 52.8118C11.5506 52.8177 18.0681 50.5736 23.3465 46.4412C16.9706 46.3206 11.3795 42.1765 9.42631 36.1265C11.6598 36.5559 13.9611 36.4677 16.1533 35.8706C9.20208 34.4706 4.2011 28.3824 4.2011 21.3118C4.2011 21.2471 4.2011 21.1853 4.2011 21.1236C6.2723 22.2736 8.59134 22.9118 10.9635 22.9824C4.41648 18.6206 2.39838 9.93826 6.35196 3.15003C13.9169 12.4294 25.0784 18.0706 37.0601 18.6677C35.8592 13.5088 37.4997 8.10297 41.3707 4.4765C47.3718 -1.14703 56.8103 -0.858798 62.4515 5.12061C65.7884 4.46473 68.9867 3.24414 71.9135 1.51473C70.8012 4.95297 68.4733 7.87356 65.3636 9.72944C68.317 9.38238 71.2025 8.59414 73.9198 7.3912C71.9194 10.3794 69.3998 12.9824 66.4847 15.0853Z" fill="#242424"/>
</svg>
