<svg width="75" height="60" viewBox="0 0 75 60" fill="none" xmlns="http://www.w3.org/2000/svg">
<path d="M37.5 59C53.7924 59 67 45.7924 67 29.5C67 13.2076 53.7924 0 37.5 0C21.2076 0 8 13.2076 8 29.5C8 45.7924 21.2076 59 37.5 59Z" fill="#242424"/>
<path d="M57.1666 29.5C57.1666 27.1193 55.2345 25.1871 52.8538 25.1871C51.6807 25.1871 50.6456 25.6357 49.8865 26.3947C46.9538 24.2901 42.8824 22.91 38.3971 22.7374L40.3637 13.5251L46.7468 14.8708C46.8158 16.4924 48.1614 17.8035 49.8175 17.8035C51.5082 17.8035 52.8883 16.4234 52.8883 14.7328C52.8883 13.0421 51.5082 11.662 49.8175 11.662C48.6099 11.662 47.5748 12.352 47.0918 13.3871L39.9497 11.869C39.7427 11.8345 39.5357 11.869 39.3631 11.9725C39.1906 12.076 39.0871 12.2485 39.0181 12.4556L36.8444 22.7374C32.2555 22.8755 28.1497 24.2211 25.1825 26.3947C24.4234 25.6702 23.3538 25.1871 22.2152 25.1871C19.8345 25.1871 17.9023 27.1193 17.9023 29.5C17.9023 31.2597 18.9374 32.7433 20.4556 33.4334C20.3866 33.8474 20.352 34.2959 20.352 34.7445C20.352 41.369 28.0462 46.717 37.569 46.717C47.0918 46.717 54.7859 41.369 54.7859 34.7445C54.7859 34.2959 54.7514 33.8819 54.6824 33.4679C56.097 32.7778 57.1666 31.2597 57.1666 29.5ZM27.6667 32.5708C27.6667 30.8801 29.0468 29.5 30.7374 29.5C32.4281 29.5 33.8082 30.8801 33.8082 32.5708C33.8082 34.2614 32.4281 35.6415 30.7374 35.6415C29.0468 35.6415 27.6667 34.2614 27.6667 32.5708ZM44.8146 40.679C42.7099 42.7837 38.7076 42.9217 37.5345 42.9217C36.3614 42.9217 32.3246 42.7492 30.2544 40.679C29.9439 40.3685 29.9439 39.8509 30.2544 39.5404C30.5649 39.2299 31.0824 39.2299 31.393 39.5404C32.7041 40.8515 35.5333 41.3345 37.569 41.3345C39.6047 41.3345 42.3994 40.8515 43.745 39.5404C44.0555 39.2299 44.5731 39.2299 44.8836 39.5404C45.1251 39.8854 45.1251 40.3685 44.8146 40.679ZM44.2626 35.6415C42.5719 35.6415 41.1918 34.2614 41.1918 32.5708C41.1918 30.8801 42.5719 29.5 44.2626 29.5C45.9532 29.5 47.3333 30.8801 47.3333 32.5708C47.3333 34.2614 45.9532 35.6415 44.2626 35.6415Z" fill="white"/>
</svg>
